<svg width="185" height="172" viewBox="0 0 185 172" fill="none" xmlns="http://www.w3.org/2000/svg">
<path d="M135.859 161.25H101.172C100.405 161.25 99.67 160.967 99.1279 160.463C98.5858 159.959 98.2812 159.275 98.2812 158.562V94.0625C98.2812 93.3497 98.5858 92.6662 99.1279 92.1621C99.67 91.6581 100.405 91.375 101.172 91.375H135.859C136.626 91.375 137.361 91.6581 137.903 92.1621C138.445 92.6662 138.75 93.3497 138.75 94.0625V158.562C138.75 159.275 138.445 159.959 137.903 160.463C137.361 160.967 136.626 161.25 135.859 161.25ZM104.062 155.875H132.969V96.75H104.062V155.875Z" fill="#0082C3"/>
<path d="M167.656 161.25H135.859C135.093 161.25 134.357 160.967 133.815 160.463C133.273 159.959 132.969 159.275 132.969 158.562V102.125C132.969 101.412 133.273 100.729 133.815 100.225C134.357 99.7206 135.093 99.4375 135.859 99.4375H167.656C168.423 99.4375 169.158 99.7206 169.7 100.225C170.242 100.729 170.547 101.412 170.547 102.125V158.562C170.547 159.275 170.242 159.959 169.7 160.463C169.158 160.967 168.423 161.25 167.656 161.25ZM138.75 155.875H164.766V104.812H138.75V155.875Z" fill="#0082C3"/>
<path d="M118.516 118.25C116.8 118.25 115.124 117.777 113.698 116.891C112.272 116.005 111.16 114.746 110.504 113.273C109.848 111.8 109.676 110.179 110.01 108.615C110.345 107.051 111.171 105.614 112.384 104.486C113.596 103.359 115.142 102.591 116.824 102.28C118.506 101.969 120.25 102.128 121.834 102.739C123.419 103.349 124.773 104.382 125.726 105.708C126.679 107.034 127.188 108.593 127.188 110.188C127.188 112.326 126.274 114.377 124.648 115.889C123.021 117.401 120.816 118.25 118.516 118.25ZM118.516 107.5C117.944 107.5 117.385 107.658 116.91 107.953C116.434 108.248 116.064 108.668 115.845 109.159C115.626 109.65 115.569 110.19 115.681 110.712C115.792 111.233 116.067 111.712 116.472 112.088C116.876 112.464 117.391 112.72 117.952 112.823C118.512 112.927 119.094 112.874 119.622 112.67C120.15 112.467 120.601 112.123 120.919 111.681C121.237 111.239 121.406 110.719 121.406 110.188C121.406 109.475 121.102 108.791 120.56 108.287C120.018 107.783 119.282 107.5 118.516 107.5Z" fill="#0082C3"/>
<path d="M127.188 161.25H109.844C109.077 161.25 108.342 160.967 107.8 160.463C107.258 159.959 106.953 159.275 106.953 158.562V145.904C106.961 143.562 107.965 141.317 109.747 139.66C111.529 138.003 113.943 137.07 116.463 137.062H120.568C123.088 137.07 125.502 138.003 127.284 139.66C129.066 141.317 130.071 143.562 130.078 145.904V158.562C130.078 159.275 129.774 159.959 129.231 160.463C128.689 160.967 127.954 161.25 127.188 161.25ZM112.734 155.875H124.297V145.904C124.297 144.985 123.904 144.103 123.205 143.453C122.505 142.803 121.557 142.438 120.568 142.438H116.463C115.474 142.438 114.526 142.803 113.827 143.453C113.127 144.103 112.734 144.985 112.734 145.904V155.875Z" fill="#0082C3"/>
<path d="M156.094 150.5H147.422C146.655 150.5 145.92 150.217 145.378 149.713C144.836 149.209 144.531 148.525 144.531 147.812V134.375C144.531 133.662 144.836 132.979 145.378 132.475C145.92 131.971 146.655 131.688 147.422 131.688H156.094C156.86 131.688 157.596 131.971 158.138 132.475C158.68 132.979 158.984 133.662 158.984 134.375V147.812C158.984 148.525 158.68 149.209 158.138 149.713C157.596 150.217 156.86 150.5 156.094 150.5ZM150.312 145.125H153.203V137.062H150.312V145.125Z" fill="#0082C3"/>
<path d="M156.094 129H147.422C146.655 129 145.92 128.717 145.378 128.213C144.836 127.709 144.531 127.025 144.531 126.312V112.875C144.531 112.162 144.836 111.479 145.378 110.975C145.92 110.471 146.655 110.188 147.422 110.188H156.094C156.86 110.188 157.596 110.471 158.138 110.975C158.68 111.479 158.984 112.162 158.984 112.875V126.312C158.984 127.025 158.68 127.709 158.138 128.213C157.596 128.717 156.86 129 156.094 129ZM150.312 123.625H153.203V115.562H150.312V123.625Z" fill="#0082C3"/>
<path d="M118.516 96.75C117.749 96.75 117.014 96.4669 116.472 95.9629C115.93 95.4588 115.625 94.7753 115.625 94.0625V77.9375C115.625 77.2247 115.93 76.5412 116.472 76.0371C117.014 75.5331 117.749 75.25 118.516 75.25C119.282 75.25 120.018 75.5331 120.56 76.0371C121.102 76.5412 121.406 77.2247 121.406 77.9375V94.0625C121.406 94.7753 121.102 95.4588 120.56 95.9629C120.018 96.4669 119.282 96.75 118.516 96.75Z" fill="#0082C3"/>
<path d="M132.969 88.6875H118.516C117.749 88.6875 117.014 88.4044 116.472 87.9004C115.93 87.3963 115.625 86.7128 115.625 86V77.9375C115.625 77.2247 115.93 76.5412 116.472 76.0371C117.014 75.5331 117.749 75.25 118.516 75.25H132.969C133.735 75.25 134.471 75.5331 135.013 76.0371C135.555 76.5412 135.859 77.2247 135.859 77.9375V86C135.859 86.7128 135.555 87.3963 135.013 87.9004C134.471 88.4044 133.735 88.6875 132.969 88.6875ZM121.406 83.3125H130.078V80.625H121.406V83.3125Z" fill="#0082C3"/>
<path d="M170.547 104.812H135.859C135.093 104.812 134.357 104.529 133.815 104.025C133.273 103.521 132.969 102.838 132.969 102.125C132.969 101.412 133.273 100.729 133.815 100.225C134.357 99.7206 135.093 99.4375 135.859 99.4375H170.547C171.314 99.4375 172.049 99.7206 172.591 100.225C173.133 100.729 173.438 101.412 173.438 102.125C173.438 102.838 173.133 103.521 172.591 104.025C172.049 104.529 171.314 104.812 170.547 104.812Z" fill="#0082C3"/>
<path d="M101.172 161.25H66.4844C65.7177 161.25 64.9825 160.967 64.4404 160.463C63.8983 159.959 63.5938 159.275 63.5938 158.562V102.125C63.5938 101.412 63.8983 100.729 64.4404 100.225C64.9825 99.7206 65.7177 99.4375 66.4844 99.4375H101.172C101.939 99.4375 102.674 99.7206 103.216 100.225C103.758 100.729 104.062 101.412 104.062 102.125V158.562C104.062 159.275 103.758 159.959 103.216 160.463C102.674 160.967 101.939 161.25 101.172 161.25ZM69.375 155.875H98.2812V104.812H69.375V155.875Z" fill="#0082C3"/>
<path d="M89.6094 150.5H78.0469C77.2802 150.5 76.545 150.217 76.0029 149.713C75.4608 149.209 75.1562 148.525 75.1562 147.812V134.375C75.1562 133.662 75.4608 132.979 76.0029 132.475C76.545 131.971 77.2802 131.688 78.0469 131.688H89.6094C90.376 131.688 91.1113 131.971 91.6534 132.475C92.1955 132.979 92.5 133.662 92.5 134.375V147.812C92.5 148.525 92.1955 149.209 91.6534 149.713C91.1113 150.217 90.376 150.5 89.6094 150.5ZM80.9375 145.125H86.7188V137.062H80.9375V145.125Z" fill="#0082C3"/>
<path d="M89.6094 129H78.0469C77.2802 129 76.545 128.717 76.0029 128.213C75.4608 127.709 75.1562 127.025 75.1562 126.312V112.875C75.1562 112.162 75.4608 111.479 76.0029 110.975C76.545 110.471 77.2802 110.188 78.0469 110.188H89.6094C90.376 110.188 91.1113 110.471 91.6534 110.975C92.1955 111.479 92.5 112.162 92.5 112.875V126.312C92.5 127.025 92.1955 127.709 91.6534 128.213C91.1113 128.717 90.376 129 89.6094 129ZM80.9375 123.625H86.7188V115.562H80.9375V123.625Z" fill="#0082C3"/>
<path d="M101.172 104.812H63.5938C62.8271 104.812 62.0919 104.529 61.5498 104.025C61.0077 103.521 60.7031 102.838 60.7031 102.125C60.7031 101.412 61.0077 100.729 61.5498 100.225C62.0919 99.7206 62.8271 99.4375 63.5938 99.4375H101.172C101.939 99.4375 102.674 99.7206 103.216 100.225C103.758 100.729 104.062 101.412 104.062 102.125C104.062 102.838 103.758 103.521 103.216 104.025C102.674 104.529 101.939 104.812 101.172 104.812Z" fill="#0082C3"/>
<path d="M54.9219 145.125C54.1817 145.13 53.4678 144.87 52.9274 144.4C51.5845 143.191 50.4963 141.76 49.7188 140.18L13.1813 64.0434C11.6209 60.7928 11.5116 57.0993 12.8773 53.7738C14.243 50.4483 16.9721 47.7625 20.4657 46.3059L78.7696 22.1184C79.4108 21.9905 80.0797 22.0691 80.6666 22.3413C81.2534 22.6135 81.7232 23.0631 81.9989 23.6164C82.2746 24.1696 82.3397 24.7936 82.1836 25.3858C82.0275 25.978 81.6594 26.5032 81.1399 26.8753L22.836 51.0628C21.7817 51.4931 20.8301 52.1142 20.0367 52.89C19.2434 53.6658 18.6242 54.5808 18.2152 55.5814C17.8062 56.5821 17.6156 57.6485 17.6546 58.7183C17.6936 59.7882 17.9613 60.8401 18.4422 61.8128L54.9219 137.923C55.3855 138.873 56.0432 139.731 56.8586 140.449C57.2899 140.813 57.5926 141.291 57.7271 141.818C57.8615 142.345 57.8214 142.898 57.6119 143.404C57.4025 143.909 57.0336 144.344 56.5535 144.651C56.0735 144.959 55.5047 145.124 54.9219 145.125Z" fill="#999999"/>
<path d="M48.3891 60.9525C47.825 60.9544 47.2726 60.8027 46.8 60.5161C46.3275 60.2296 45.9554 59.8208 45.7298 59.34C45.5758 59.0171 45.4918 58.6692 45.4825 58.3161C45.4733 57.963 45.539 57.6117 45.6759 57.2822C45.8129 56.9527 46.0183 56.6516 46.2805 56.396C46.5427 56.1404 46.8565 55.9353 47.204 55.7925L70.936 45.9294C71.2834 45.7847 71.658 45.7051 72.0384 45.6949C72.4189 45.6848 72.7977 45.7445 73.1534 45.8705C73.5091 45.9966 73.8345 46.1865 74.1112 46.4295C74.3879 46.6724 74.6105 46.9637 74.7661 47.2866C74.9217 47.6095 75.0074 47.9578 75.0183 48.3115C75.0292 48.6653 74.965 49.0175 74.8295 49.3482C74.6939 49.6788 74.4896 49.9814 74.2283 50.2387C73.967 50.496 73.6537 50.7029 73.3063 50.8476L49.5454 60.7107C49.1821 60.8647 48.7884 60.947 48.3891 60.9525Z" fill="#666666"/>
<path d="M47.5219 78.9588C46.8553 78.975 46.2032 78.7765 45.676 78.3968C45.1489 78.0171 44.7791 77.4797 44.6294 76.8755C44.4798 76.2714 44.5593 75.6377 44.8547 75.0819C45.15 74.5261 45.643 74.0823 46.25 73.8257L65.8484 65.7632C66.5366 65.5211 67.2982 65.5322 67.9779 65.7942C68.6577 66.0561 69.2044 66.5492 69.5066 67.1729C69.8089 67.7966 69.8439 68.504 69.6046 69.1509C69.3653 69.7978 68.8697 70.3355 68.2187 70.6544L48.6203 78.7169C48.2748 78.8639 47.9015 78.9461 47.5219 78.9588Z" fill="#666666"/>
<path d="M54.6039 93.6595C53.9449 93.6567 53.3068 93.4446 52.7952 93.0584C52.2836 92.6722 51.9293 92.1351 51.7909 91.5361C51.6526 90.937 51.7386 90.312 52.0347 89.7647C52.3307 89.2173 52.8191 88.7804 53.4188 88.5264L60.0383 85.8389C60.7265 85.5968 61.4881 85.6079 62.1678 85.8698C62.8475 86.1318 63.3942 86.6249 63.6965 87.2486C63.9987 87.8723 64.0338 88.5797 63.7945 89.2266C63.5552 89.8735 63.0596 90.4112 62.4086 90.7301L55.7891 93.4176C55.4169 93.5753 55.0129 93.6577 54.6039 93.6595Z" fill="#666666"/>
<path d="M60.2985 94.0626C60.0497 94.1017 59.7957 94.1017 59.5469 94.0626C58.8132 93.8739 58.1892 93.4238 57.8104 92.8099C57.4316 92.196 57.3285 91.468 57.5235 90.7839L78.0469 20.6132C78.5458 18.9102 79.4006 17.3152 80.5626 15.9193C81.7246 14.5235 83.171 13.3542 84.8192 12.4782C86.4674 11.6022 88.2851 11.0367 90.1684 10.814C92.0517 10.5912 93.9638 10.7156 95.7954 11.1801L162.771 28.2189C164.592 28.6734 166.297 29.4615 167.786 30.5367C169.275 31.612 170.519 32.9529 171.443 34.4807C172.39 36.0128 173.002 37.7034 173.245 39.4558C173.488 41.2082 173.357 42.988 172.859 44.6932L158.984 92.0739C158.884 92.4146 158.712 92.7335 158.479 93.0125C158.246 93.2915 157.956 93.5251 157.626 93.6998C157.296 93.8745 156.932 93.987 156.555 94.0308C156.178 94.0746 155.795 94.0489 155.429 93.9551C154.695 93.7664 154.071 93.3163 153.692 92.7024C153.314 92.0885 153.21 91.3605 153.406 90.6764L167.367 43.2957C167.668 42.2733 167.748 41.2058 167.604 40.1544C167.46 39.103 167.095 38.0882 166.529 37.1682C165.968 36.245 165.214 35.4361 164.31 34.7897C163.406 34.1433 162.372 33.6727 161.268 33.4057L94.379 16.3401C92.1677 15.8061 89.8191 16.105 87.8435 17.1719C85.8679 18.2387 84.425 19.9873 83.8282 22.0376L63.1024 92.0739C62.9365 92.6465 62.5716 93.1521 62.0644 93.5118C61.5573 93.8716 60.9364 94.0652 60.2985 94.0626Z" fill="#999999"/>
<path d="M137.189 46.6549C136.93 46.6813 136.668 46.6813 136.409 46.6549L111.318 40.3124C110.952 40.2191 110.608 40.0595 110.308 39.8429C110.008 39.6262 109.757 39.3566 109.569 39.0496C109.381 38.7426 109.26 38.4041 109.213 38.0536C109.166 37.7031 109.194 37.3473 109.295 37.0068C109.373 36.6605 109.525 36.3322 109.741 36.0406C109.957 35.749 110.232 35.4999 110.552 35.3076C110.872 35.1153 111.229 34.9837 111.603 34.9201C111.978 34.8566 112.362 34.8625 112.734 34.9374L137.825 41.3336C138.205 41.3795 138.571 41.4945 138.903 41.6719C139.234 41.8494 139.525 42.0858 139.759 42.3678C139.992 42.6498 140.164 42.9718 140.264 43.3155C140.363 43.6591 140.389 44.0176 140.34 44.3705C140.291 44.7234 140.167 45.0639 139.976 45.3724C139.785 45.6809 139.531 45.9514 139.228 46.1685C138.924 46.3857 138.578 46.5451 138.208 46.6378C137.839 46.7304 137.453 46.7545 137.073 46.7086L137.189 46.6549Z" fill="#666666"/>
<path d="M140.976 64.3391C140.716 64.3655 140.455 64.3655 140.195 64.3391L98.2813 53.7503C97.5147 53.5508 96.8647 53.0762 96.4744 52.4311C96.0841 51.786 95.9854 51.0231 96.2 50.3103C96.4147 49.5976 96.9251 48.9933 97.619 48.6304C98.3129 48.2675 99.1334 48.1758 99.9001 48.3753L141.641 59.1253C142.407 59.218 143.103 59.59 143.575 60.1595C144.046 60.7291 144.255 61.4494 144.155 62.1622C144.056 62.875 143.656 63.5217 143.043 63.9602C142.431 64.3987 141.656 64.593 140.889 64.5003L140.976 64.3391Z" fill="#666666"/>
<path d="M106.953 72.4013C106.704 72.4404 106.45 72.4404 106.202 72.4013L93.8009 69.2569C93.0496 69.0609 92.4128 68.5955 92.0306 67.9629C91.6484 67.3304 91.5522 66.5826 91.763 65.8841C91.9738 65.1856 92.4745 64.5936 93.1548 64.2382C93.8351 63.8829 94.6394 63.7934 95.3907 63.9894L107.705 67.1876C108.447 67.3535 109.089 67.7858 109.49 68.39C109.89 68.9942 110.018 69.7213 109.844 70.4126C109.674 70.9989 109.297 71.5146 108.772 71.8757C108.247 72.2368 107.606 72.4221 106.953 72.4013Z" fill="#666666"/>
<path d="M106.953 89.1444C106.705 89.1851 106.45 89.1851 106.202 89.1444L89.2337 84.8176C88.834 84.7574 88.4523 84.6199 88.1133 84.4139C87.7744 84.2078 87.4859 83.9379 87.2663 83.6215C87.0468 83.3052 86.9012 82.9494 86.839 82.5774C86.7768 82.2054 86.7993 81.8254 86.9052 81.462C87.0111 81.0986 87.1979 80.7599 87.4535 80.468C87.7091 80.176 88.0279 79.9372 88.3891 79.7671C88.7504 79.5969 89.146 79.4993 89.5505 79.4804C89.9549 79.4616 90.3591 79.5219 90.7368 79.6576L107.705 83.9844C108.438 84.1731 109.062 84.6233 109.441 85.2372C109.82 85.851 109.923 86.5791 109.728 87.2632C109.543 87.8114 109.173 88.2899 108.674 88.6285C108.174 88.9671 107.571 89.1479 106.953 89.1444Z" fill="#666666"/>
</svg>
